<svg width="20" height="20" viewBox="0 0 20 20" fill="none" xmlns="http://www.w3.org/2000/svg">
<path d="M3.75 18.3333C3.41667 18.3333 3.125 18.2083 2.875 17.9583C2.625 17.7083 2.5 17.4167 2.5 17.0833V4.16666C2.5 3.83332 2.625 3.54166 2.875 3.29166C3.125 3.04166 3.41667 2.91666 3.75 2.91666H5.10417V1.66666H6.45833V2.91666H13.5417V1.66666H14.8958V2.91666H16.25C16.5833 2.91666 16.875 3.04166 17.125 3.29166C17.375 3.54166 17.5 3.83332 17.5 4.16666V17.0833C17.5 17.4167 17.375 17.7083 17.125 17.9583C16.875 18.2083 16.5833 18.3333 16.25 18.3333H3.75ZM3.75 17.0833H16.25V8.12499H3.75V17.0833ZM3.75 6.87499H16.25V4.16666H3.75V6.87499Z" fill="url(#paint0_linear_118_1601)"/>
<defs>
<linearGradient id="paint0_linear_118_1601" x1="2.79297" y1="16.5543" x2="19.7884" y2="10.2341" gradientUnits="userSpaceOnUse">
<stop stop-color="#3F4AB3"/>
<stop offset="1" stop-color="#7A64D0"/>
</linearGradient>
</defs>
</svg>
