<svg width="20" height="20" viewBox="0 0 20 20" fill="none" xmlns="http://www.w3.org/2000/svg">
<path d="M14.9884 16.8032C14.9513 16.967 15.1576 17.0708 15.2686 16.9448C16.8743 15.1233 17.6193 12.6568 17.307 10.241C17.2842 10.0645 17.0448 10.0302 16.973 10.1924C16.8268 10.5187 16.5592 10.8232 16.0701 10.8232C15.92 10.8232 15.7896 10.7577 15.6712 10.6709C15.212 10.3339 14.9618 9.67023 14.7435 9.16963C14.3724 8.32056 14.0569 7.44738 13.7111 6.58793C13.0617 4.97515 12.3993 3.34512 10.9667 2.25763C10.5168 1.91309 10.015 1.64233 9.48005 1.45552L9.47541 1.45385C9.32011 1.40282 9.19932 1.59226 9.30842 1.71361C9.99494 2.47714 10.3163 3.53475 10.3736 4.55062C10.4187 5.34847 10.3425 7.28911 9.31714 7.54925C9.13289 7.596 8.93677 7.54516 8.7657 7.46297C8.17584 7.17982 8.00792 6.55379 8.14745 5.94835C8.15789 5.90435 8.17083 5.86098 8.18623 5.81846C8.22204 5.71734 8.09995 5.63422 8.01794 5.70305L8.01479 5.70547C7.91199 5.79131 7.81056 5.87877 7.71049 5.96783C7.52494 6.13334 7.34478 6.30478 7.16999 6.48217C6.66716 6.99446 6.21554 7.55982 5.85168 8.17955C5.56335 8.66596 5.33744 9.18674 5.17926 9.72961C5.05646 10.1545 4.98294 10.5921 4.96013 11.0338C4.94474 11.3299 4.95529 11.6267 4.99167 11.9209C5.01505 12.1065 4.7705 12.1992 4.66993 12.0408C4.25524 11.3899 4.17434 10.6078 4.16729 10.1508C4.16674 10.1162 4.15599 10.0825 4.13639 10.0539C4.11679 10.0254 4.0892 10.0032 4.05707 9.99027C4.02495 9.97731 3.98972 9.97412 3.95579 9.98109C3.92186 9.98806 3.89075 10.0049 3.86633 10.0295C3.77227 10.1225 3.6863 10.2234 3.60935 10.331C2.79294 11.4717 3.08388 13.0192 3.5483 14.2386C4.03982 15.5291 4.84713 16.6633 5.96579 17.4857C6.9876 18.2366 8.50036 18.5804 9.47875 18.5535C9.48817 18.5534 9.49723 18.5498 9.50425 18.5435C9.51126 18.5373 9.51577 18.5286 9.51692 18.5193C9.51808 18.5099 9.5158 18.5005 9.51053 18.4927C9.50525 18.4849 9.49732 18.4793 9.48821 18.4768C9.05682 18.3609 8.29051 17.9837 7.90235 16.7579C7.79076 16.4126 7.64998 16.0774 7.48153 15.756C7.46539 15.7251 7.45876 15.6902 7.46248 15.6556C7.46621 15.621 7.48011 15.5883 7.50244 15.5616C7.52477 15.5349 7.55452 15.5154 7.58792 15.5056C7.62132 15.4958 7.65687 15.4962 7.69008 15.5066C7.83386 15.5503 7.97252 15.6093 8.10366 15.6827C8.1301 15.6975 8.15992 15.7053 8.19025 15.7053C8.22057 15.7053 8.25038 15.6974 8.27677 15.6825C8.30317 15.6675 8.32527 15.6461 8.34094 15.6201C8.35661 15.5941 8.36531 15.5646 8.36621 15.5343C8.41019 13.8948 8.9659 12.9125 9.30731 12.4601C9.32762 12.4334 9.35518 12.413 9.38672 12.4015C9.41826 12.3899 9.45245 12.3877 9.48522 12.395C9.518 12.4024 9.54798 12.4189 9.5716 12.4428C9.59522 12.4667 9.61149 12.4968 9.61847 12.5297C9.68341 12.8358 9.83036 13.1349 10.1703 13.1296C10.6089 13.1225 11.0424 12.6006 11.2426 12.2575C11.4917 11.8281 11.5836 11.3257 11.5786 10.8338C11.5758 10.574 11.5662 10.0215 11.452 9.66596C11.4489 9.65436 11.4497 9.64207 11.4541 9.63092C11.4586 9.61977 11.4665 9.61036 11.4768 9.6041C11.487 9.59783 11.499 9.59505 11.511 9.59617C11.523 9.59729 11.5342 9.60225 11.5431 9.6103C12.4061 10.4432 13.2441 12.1243 13.6085 13.5419C13.6235 13.6005 13.7484 14.089 13.7998 14.3904C13.8042 14.4176 13.8149 14.4433 13.8312 14.4656C13.8475 14.4878 13.8688 14.5059 13.8934 14.5183C13.918 14.5308 13.9451 14.5372 13.9727 14.5371C14.0003 14.537 14.0274 14.5304 14.0519 14.5178C14.3319 14.3707 14.5104 14.1944 14.6182 14.0575C14.6365 14.0343 14.6604 14.0161 14.6877 14.0045C14.7149 13.993 14.7446 13.9885 14.7741 13.9915C14.8035 13.9945 14.8317 14.0049 14.856 14.0217C14.8804 14.0385 14.9001 14.0611 14.9134 14.0875C15.3754 14.993 15.1904 15.8948 14.9884 16.8032ZM7.72255 14.4698C7.72255 14.4698 7.46557 12.9112 8.18475 12.3809C8.90393 11.8506 7.72255 14.4698 7.72255 14.4698ZM15.0164 12.3809C15.2732 11.5248 15.3246 13.5966 15.3246 13.5966C15.3246 13.5966 14.7596 13.237 15.0164 12.3809Z" fill="url(#paint0_linear_593_1787)"/>
<path d="M17.332 9.55566C17.3194 9.72265 17.0809 9.73879 17.0494 9.57421C16.9702 9.16026 16.9163 8.68878 17.1576 8.98176C17.3095 9.16712 17.3451 9.37308 17.332 9.55566Z" fill="url(#paint1_linear_593_1787)"/>
<path d="M12.3102 2.46122C12.403 2.63619 12.1735 2.80095 12.0392 2.65585C11.7018 2.29163 11.3537 1.85411 11.7775 1.99624C12.0457 2.08623 12.2097 2.26955 12.3102 2.46122Z" fill="url(#paint2_linear_593_1787)"/>
<path d="M2.74402 10.9386C2.75646 11.1056 2.99507 11.1217 3.02661 10.9571C3.10566 10.5432 3.15965 10.0717 2.91844 10.3645C2.76592 10.5497 2.72992 10.7554 2.74402 10.9386Z" fill="url(#paint3_linear_593_1787)"/>
<path d="M9.15864 17.7012C9.20335 17.8025 9.07236 17.8895 8.99721 17.8079C8.76899 17.5606 8.48473 17.1782 8.42517 16.7599C8.3439 16.1898 8.88867 17.0882 9.15864 17.7012Z" fill="url(#paint4_linear_593_1787)"/>
<path d="M8.74541 7.15238C8.75858 7.19636 8.68511 7.21361 8.65505 7.17353C8.56339 7.05219 8.45614 6.87276 8.46431 6.7067C8.47562 6.48033 8.66729 6.88705 8.74541 7.15238Z" fill="url(#paint5_linear_593_1787)"/>
<path d="M12.4608 11.6862C12.4586 11.6743 12.4606 11.6621 12.4665 11.6516C12.4723 11.6411 12.4816 11.633 12.4928 11.6286C12.504 11.6242 12.5164 11.6238 12.5278 11.6276C12.5392 11.6313 12.549 11.6389 12.5554 11.649C12.6469 11.8006 12.7531 12.0279 12.7397 12.2498C12.7213 12.5515 12.5352 12.0307 12.4608 11.6862Z" fill="url(#paint6_linear_593_1787)"/>
<path d="M14.6454 15.9207C14.6481 15.9056 14.656 15.8919 14.6678 15.8821C14.6796 15.8723 14.6945 15.867 14.7098 15.8672C14.7252 15.8674 14.7399 15.873 14.7515 15.8831C14.763 15.8932 14.7706 15.907 14.7729 15.9222C14.8058 16.1413 14.8193 16.4545 14.6972 16.7044C14.531 17.0446 14.566 16.3539 14.6454 15.9207Z" fill="url(#paint7_linear_593_1787)"/>
<defs>
<linearGradient id="paint0_linear_593_1787" x1="3.09353" y1="9.99976" x2="17.3767" y2="9.99976" gradientUnits="userSpaceOnUse">
<stop stop-color="#9555FF"/>
<stop offset="0.99" stop-color="#55C3FF" stop-opacity="0.96"/>
</linearGradient>
<linearGradient id="paint1_linear_593_1787" x1="16.9818" y1="9.29051" x2="17.3342" y2="9.29051" gradientUnits="userSpaceOnUse">
<stop stop-color="#9555FF"/>
<stop offset="0.99" stop-color="#55C3FF" stop-opacity="0.96"/>
</linearGradient>
<linearGradient id="paint2_linear_593_1787" x1="11.6479" y1="2.38801" x2="12.2833" y2="2.27035" gradientUnits="userSpaceOnUse">
<stop stop-color="#9555FF"/>
<stop offset="0.99" stop-color="#55C3FF" stop-opacity="0.96"/>
</linearGradient>
<linearGradient id="paint3_linear_593_1787" x1="2.74124" y1="10.6729" x2="3.0936" y2="10.6729" gradientUnits="userSpaceOnUse">
<stop stop-color="#9555FF"/>
<stop offset="0.99" stop-color="#55C3FF" stop-opacity="0.96"/>
</linearGradient>
<linearGradient id="paint4_linear_593_1787" x1="8.41701" y1="17.2091" x2="9.16773" y2="17.2091" gradientUnits="userSpaceOnUse">
<stop stop-color="#9555FF"/>
<stop offset="0.99" stop-color="#55C3FF" stop-opacity="0.96"/>
</linearGradient>
<linearGradient id="paint5_linear_593_1787" x1="8.54967" y1="7.13781" x2="8.74951" y2="6.88347" gradientUnits="userSpaceOnUse">
<stop stop-color="#9555FF"/>
<stop offset="0.99" stop-color="#55C3FF" stop-opacity="0.96"/>
</linearGradient>
<linearGradient id="paint6_linear_593_1787" x1="12.4595" y1="11.9814" x2="12.7408" y2="11.9814" gradientUnits="userSpaceOnUse">
<stop stop-color="#9555FF"/>
<stop offset="0.99" stop-color="#55C3FF" stop-opacity="0.96"/>
</linearGradient>
<linearGradient id="paint7_linear_593_1787" x1="14.579" y1="16.3311" x2="14.7956" y2="16.3311" gradientUnits="userSpaceOnUse">
<stop stop-color="#9555FF"/>
<stop offset="0.99" stop-color="#55C3FF" stop-opacity="0.96"/>
</linearGradient>
</defs>
</svg>
