<svg width="240" height="50" viewBox="0 0 240 50" fill="none" xmlns="http://www.w3.org/2000/svg">
<path d="M47.5964 24.5884V24.5639C47.587 18.5261 45.1726 12.7392 40.8838 8.4748C36.5951 4.21044 30.7829 1.81765 24.7247 1.82233C18.6666 1.82701 12.8582 4.22878 8.57604 8.49976C4.29393 12.7707 1.88855 18.5614 1.88855 24.5992C1.88855 30.6369 4.29393 36.4276 8.57604 40.6986C12.8582 44.9696 18.6666 47.3714 24.7247 47.376C30.7829 47.3807 36.5951 44.9879 40.8838 40.7236C45.1726 36.4592 47.587 30.6722 47.5964 24.6345V24.5854V24.5884ZM46.1884 24.6376C46.1824 26.3228 45.8497 27.9909 45.2087 29.5503H37.4387C38.8392 28.9887 40.0898 28.1108 41.092 26.9857C42.0943 25.8606 42.8208 24.519 43.2144 23.0665C43.608 21.614 43.658 20.0903 43.3604 18.6153C43.0628 17.1403 42.4257 15.7543 41.4993 14.5664C42.9662 15.7929 44.1461 17.3245 44.9562 19.0537C45.7662 20.7829 46.1868 22.6678 46.1884 24.5762V24.6376ZM35.7381 22.1382C35.7381 22.6794 35.577 23.2085 35.2752 23.6584C34.9735 24.1084 34.5446 24.4591 34.0428 24.666C33.541 24.873 32.9889 24.927 32.4563 24.8212C31.9238 24.7154 31.4347 24.4545 31.0509 24.0716C30.6671 23.6887 30.4059 23.2009 30.3003 22.67C30.1948 22.1391 30.2496 21.589 30.4578 21.0891C30.666 20.5893 31.0184 20.1622 31.4702 19.862C31.922 19.5617 32.453 19.4018 32.9961 19.4024C33.7233 19.404 34.4203 19.6929 34.9343 20.2057C35.4482 20.7185 35.7373 21.4134 35.7381 22.1382ZM28.8431 22.1382C28.8439 23.2357 29.2817 24.288 30.0604 25.064C30.839 25.8401 31.8949 26.2764 32.9961 26.2772C33.4031 26.2761 33.8079 26.2161 34.1976 26.0991C33.5819 26.5879 32.8512 26.9119 32.0746 27.0403C31.2981 27.1686 30.5015 27.0972 29.7604 26.8328C29.0193 26.5683 28.3583 26.1196 27.8401 25.5291C27.3218 24.9386 26.9634 24.226 26.799 23.4588C26.6345 22.6917 26.6694 21.8953 26.9004 21.1453C27.1313 20.3954 27.5506 19.7166 28.1186 19.1734C28.6866 18.6303 29.3843 18.2407 30.1457 18.0416C30.9071 17.8426 31.7069 17.8406 32.4693 18.036C31.4698 18.1663 30.5518 18.6543 29.8864 19.4089C29.221 20.1636 28.8535 21.1336 28.8523 22.1382H28.8431ZM31.3355 28.5095C32.4719 28.5082 33.5848 28.1871 34.5461 27.5831C35.5074 26.9791 36.278 26.1167 36.769 25.0954C37.2601 24.074 37.4517 22.9352 37.3217 21.8101C37.1918 20.6849 36.7456 19.6193 36.0346 18.7358C35.3236 17.8523 34.3766 17.187 33.3028 16.8164C32.2289 16.4458 31.0719 16.3851 29.965 16.6411C28.858 16.8972 27.8461 17.4597 27.0459 18.2639C26.2457 19.068 25.6896 20.081 25.4418 21.1863C25.4233 20.9714 25.4141 20.7565 25.4141 20.5385C25.4116 18.8892 25.9001 17.2762 26.8178 15.9037C27.7354 14.5312 29.0409 13.4608 30.5691 12.8279C32.0973 12.1951 33.7795 12.0282 35.4029 12.3485C37.0263 12.6688 38.5179 13.4618 39.6889 14.6271C40.86 15.7925 41.6578 17.2779 41.9816 18.8953C42.3053 20.5128 42.1404 22.1895 41.5077 23.7135C40.8749 25.2375 39.8028 26.5402 38.427 27.4568C37.0512 28.3733 35.4335 28.8626 33.7786 28.8626C32.9542 28.8667 32.1338 28.7477 31.3447 28.5095H31.3355ZM23.9969 20.5262C23.999 22.4658 24.5814 24.3607 25.6696 25.9688C26.7579 27.5768 28.3026 28.8248 30.1062 29.5534H20.8636C20.1881 27.9096 19.8552 26.146 19.8852 24.37C19.9151 22.5939 20.3073 20.8425 21.0379 19.2222C21.7685 17.602 22.8222 16.1468 24.1349 14.9452C25.4475 13.7437 26.9918 12.8208 28.6736 12.2328C27.2484 13.1037 26.071 14.3241 25.2539 15.7777C24.4367 17.2312 24.0071 18.8693 24.0061 20.5354L23.9969 20.5262ZM32.3152 30.9658V37.6933C30.0939 37.5713 27.9399 36.8903 26.0542 35.7138C24.1685 34.5374 22.6128 32.9039 21.5322 30.9658H32.3152ZM33.7232 30.9658H44.5062C43.4256 32.9039 41.8699 34.5374 39.9842 35.7138C38.0985 36.8903 35.9445 37.5713 33.7232 37.6933V30.9658ZM24.7085 45.9744C20.8857 45.9749 17.1319 44.9585 13.8348 43.0303C10.5377 41.1021 7.81662 38.3318 5.95254 35.0054C4.08846 31.6791 3.1489 27.9172 3.23084 24.1081C3.31278 20.299 4.41326 16.5807 6.41867 13.337C8.42408 10.0933 11.2618 7.44184 14.6388 5.65621C18.0158 3.87058 21.8098 3.01553 25.6291 3.17931C29.4485 3.3431 33.1548 4.51979 36.3654 6.58792C39.5761 8.65605 42.1747 11.5407 43.8931 14.944C41.9328 12.7538 39.3521 11.2074 36.4916 10.5092C33.6312 9.81089 30.6256 9.99349 27.8715 11.0329C25.1173 12.0722 22.7442 13.9195 21.0653 16.3309C19.3863 18.7423 18.4806 21.6043 18.4676 24.5394C18.4545 27.4744 19.3348 30.3443 20.9922 32.7704C22.6496 35.1965 25.0063 37.0647 27.7511 38.1283C30.4959 39.192 33.4998 39.4011 36.3663 38.7281C39.2328 38.0551 41.8271 36.5316 43.8069 34.3587C41.9994 37.8549 39.2614 40.7881 35.8928 42.8368C32.5242 44.8856 28.6549 45.9711 24.7085 45.9744Z" fill="url(#paint0_linear_106_1201)"/>
<path d="M77.1728 32.8757H63.8357C63.0504 32.8812 62.279 32.6685 61.6082 32.2616C60.9454 31.8682 60.3916 31.3162 59.9969 30.6557C59.5886 29.9871 59.3752 29.2184 59.3807 28.4358V20.6951C59.3747 19.9085 59.588 19.1357 59.9969 18.4628C60.3951 17.8019 60.952 17.25 61.6175 16.857C62.2889 16.4513 63.0598 16.2388 63.8449 16.2429H77.182C77.969 16.2396 78.7417 16.452 79.4156 16.857C80.0788 17.2498 80.6328 17.8019 81.0269 18.4628C81.4282 19.138 81.635 19.9104 81.6246 20.6951H79.3941C79.3991 20.403 79.3451 20.1128 79.2352 19.842C79.1253 19.5712 78.9619 19.3251 78.7546 19.1185C78.5474 18.912 78.3005 18.7491 78.0287 18.6396C77.757 18.5301 77.4659 18.4763 77.1728 18.4812H63.8357C63.543 18.4754 63.2522 18.5291 62.9811 18.6389C62.7099 18.7487 62.464 18.9123 62.2583 19.1199C62.0483 19.3242 61.883 19.5697 61.7727 19.8407C61.6624 20.1118 61.6096 20.4027 61.6175 20.6951V28.448C61.6146 28.7396 61.6701 29.0287 61.7807 29.2986C61.8913 29.5685 62.0548 29.8137 62.2616 30.0198C62.4685 30.226 62.7145 30.389 62.9853 30.4992C63.2561 30.6094 63.5463 30.6647 63.8388 30.6619H77.1759C77.4688 30.6664 77.7597 30.6123 78.0313 30.5026C78.3029 30.393 78.5496 30.2301 78.7568 30.0236C78.9639 29.8171 79.1274 29.5712 79.2374 29.3006C79.3474 29.0299 79.4017 28.74 79.3972 28.448H81.6185C81.6303 29.2282 81.4256 29.9965 81.0269 30.668C80.6339 31.3298 80.0797 31.8822 79.4156 32.2739C78.7383 32.6775 77.9619 32.8858 77.1728 32.8757Z" fill="white"/>
<path d="M107.393 32.8757H105.169V25.6784H87.3889V32.8757H85.1676V16.2551H87.3889V23.4646H105.169V16.2551H107.393V32.8757Z" fill="white"/>
<path d="M133.248 32.8757H130.888L127.933 27.3488H113.789V32.8757H111.568V16.2551H128.78C129.567 16.253 130.34 16.4653 131.014 16.8692C131.677 17.2621 132.231 17.8142 132.625 18.4751C133.025 19.1509 133.232 19.9229 133.223 20.7073V22.9212C133.236 23.8584 132.936 24.7732 132.37 25.5219C131.818 26.2708 131.047 26.8317 130.164 27.1277L133.248 32.8757ZM128.78 25.1227C129.074 25.126 129.365 25.071 129.636 24.9611C129.908 24.8511 130.155 24.6884 130.363 24.4823C130.571 24.2763 130.735 24.031 130.847 23.7609C130.959 23.4907 131.016 23.2011 131.014 22.9089V20.6951C131.021 20.4022 130.967 20.1112 130.856 19.8401C130.744 19.569 130.578 19.3238 130.367 19.1199C130.16 18.9112 129.913 18.7469 129.64 18.637C129.367 18.5272 129.075 18.4742 128.78 18.4812H113.777V25.1227H128.78Z" fill="white"/>
<path d="M155.584 32.8757H141.104C140.32 32.8808 139.549 32.6681 138.88 32.2616C138.217 31.8682 137.663 31.3162 137.268 30.6557C136.86 29.9871 136.647 29.2184 136.652 28.4357V20.695C136.646 19.9085 136.859 19.1356 137.268 18.4628C137.664 17.803 138.218 17.2512 138.88 16.8569C139.55 16.4517 140.32 16.2392 141.104 16.2428H155.584C156.371 16.2407 157.143 16.453 157.818 16.8569C158.481 17.2487 159.034 17.8011 159.426 18.4628C159.833 19.1362 160.047 19.9086 160.042 20.695V28.448C160.046 29.2305 159.833 29.9989 159.426 30.668C159.035 31.3303 158.482 31.8829 157.818 32.2738C157.143 32.6755 156.37 32.8838 155.584 32.8757ZM155.584 30.6618C155.878 30.6693 156.17 30.6162 156.442 30.5057C156.714 30.3953 156.96 30.2299 157.165 30.0201C157.373 29.8151 157.537 29.57 157.647 29.2998C157.757 29.0295 157.811 28.7397 157.805 28.448V20.695C157.81 20.4031 157.756 20.1131 157.646 19.8425C157.536 19.5718 157.372 19.326 157.165 19.1195C156.958 18.913 156.711 18.7501 156.44 18.6405C156.168 18.5308 155.877 18.4767 155.584 18.4812H141.104C140.811 18.4779 140.521 18.533 140.25 18.6431C139.98 18.7532 139.734 18.9162 139.527 19.1225C139.32 19.3288 139.157 19.5741 139.047 19.8442C138.937 20.1143 138.882 20.4036 138.886 20.695V28.448C138.883 28.7393 138.938 29.0282 139.049 29.2979C139.159 29.5676 139.322 29.8126 139.529 30.0187C139.735 30.2248 139.981 30.3879 140.251 30.4983C140.522 30.6087 140.812 30.6643 141.104 30.6618H155.584Z" fill="white"/>
<path d="M186.31 32.8757H184.088L166.306 19.083V32.8757H164.084V16.2551H166.306L184.088 30.0477V16.2551H186.31V32.8757Z" fill="white"/>
<path d="M209.256 32.8757H194.8C194.015 32.8803 193.244 32.6678 192.573 32.2616C191.911 31.8683 191.358 31.3163 190.965 30.6557C190.556 29.9871 190.343 29.2184 190.349 28.4357V20.695C190.343 19.9085 190.556 19.1357 190.965 18.4628C191.359 17.8031 191.912 17.2513 192.573 16.8569C193.245 16.4521 194.015 16.2396 194.8 16.2428H209.256C210.043 16.2396 210.816 16.452 211.49 16.8569C212.153 17.2498 212.707 17.8019 213.101 18.4628C213.503 19.1378 213.711 19.9101 213.702 20.695V28.448C213.711 29.229 213.503 29.9973 213.101 30.668C212.708 31.3298 212.154 31.8821 211.49 32.2738C210.815 32.6758 210.042 32.8841 209.256 32.8757ZM209.256 30.6618C209.55 30.6681 209.842 30.6144 210.114 30.504C210.387 30.3937 210.633 30.229 210.839 30.0201C211.048 29.8151 211.212 29.57 211.322 29.2998C211.432 29.0295 211.486 28.7397 211.48 28.448V20.695C211.485 20.4028 211.43 20.1126 211.32 19.8418C211.21 19.5709 211.046 19.3249 210.839 19.1184C210.631 18.9118 210.384 18.749 210.112 18.6395C209.84 18.5301 209.549 18.4762 209.256 18.4812H194.8C194.508 18.4783 194.218 18.5336 193.947 18.6439C193.676 18.7541 193.43 18.9171 193.223 19.1232C193.017 19.3294 192.853 19.5746 192.742 19.8445C192.632 20.1143 192.576 20.4035 192.579 20.695V28.448C192.577 28.7394 192.632 29.0284 192.743 29.2981C192.854 29.5678 193.018 29.8128 193.224 30.0189C193.431 30.225 193.677 30.3879 193.948 30.4983C194.218 30.6087 194.508 30.6643 194.8 30.6618H209.256Z" fill="white"/>
<path d="M234.3 32.8757H221.361C220.645 32.8819 219.94 32.6986 219.318 32.3445C218.705 31.9975 218.191 31.5009 217.824 30.9014C217.454 30.2958 217.26 29.5992 217.266 28.8902H219.487C219.483 29.1253 219.529 29.3587 219.621 29.575C219.714 29.7914 219.851 29.986 220.023 30.146C220.201 30.3164 220.41 30.4498 220.64 30.5384C220.869 30.627 221.114 30.669 221.361 30.6619H234.3C234.546 30.669 234.791 30.627 235.021 30.5384C235.251 30.4498 235.46 30.3164 235.637 30.146C235.809 29.9853 235.945 29.7906 236.037 29.5743C236.129 29.358 236.174 29.125 236.17 28.8902V27.4532C236.174 27.218 236.129 26.9846 236.037 26.7679C235.945 26.5511 235.809 26.3558 235.637 26.1943C235.46 26.0239 235.251 25.8905 235.021 25.8019C234.791 25.7133 234.546 25.6714 234.3 25.6785H221.361C220.644 25.6848 219.938 25.4992 219.318 25.1411C218.706 24.7924 218.193 24.2962 217.824 23.698C217.453 23.0949 217.26 22.4002 217.266 21.693V20.2437C217.258 19.5371 217.449 18.8423 217.818 18.2387C218.186 17.6398 218.7 17.1434 219.312 16.7955C219.932 16.4371 220.637 16.2505 221.354 16.2551H234.294C235.012 16.2492 235.719 16.4359 236.34 16.7955C236.956 17.1415 237.473 17.6382 237.843 18.2387C238.216 18.8408 238.411 19.536 238.404 20.2437H236.18C236.183 20.0104 236.137 19.779 236.045 19.5643C235.953 19.3497 235.818 19.1565 235.647 18.9971C235.469 18.8267 235.26 18.6933 235.03 18.6047C234.801 18.5161 234.556 18.4741 234.31 18.4812H221.37C221.124 18.4741 220.879 18.5161 220.649 18.6047C220.419 18.6933 220.21 18.8267 220.033 18.9971C219.861 19.1558 219.724 19.3489 219.632 19.5636C219.539 19.7784 219.493 20.0101 219.497 20.2437V21.693C219.493 21.928 219.539 22.1613 219.631 22.3776C219.723 22.5939 219.86 22.7885 220.033 22.9488C220.21 23.1192 220.419 23.2526 220.649 23.3412C220.879 23.4298 221.124 23.4717 221.37 23.4646H234.31C235.027 23.4578 235.733 23.6422 236.355 23.9989C236.965 24.3447 237.477 24.8391 237.843 25.4359C238.218 26.042 238.412 26.7415 238.404 27.4532V28.8902C238.41 29.5997 238.216 30.2966 237.843 30.9014C237.478 31.5006 236.966 31.9973 236.355 32.3445C235.73 32.7017 235.021 32.8851 234.3 32.8757Z" fill="white"/>
<defs>
<linearGradient id="paint0_linear_106_1201" x1="47.5964" y1="24.5669" x2="1.82074" y2="24.5669" gradientUnits="userSpaceOnUse">
<stop stop-color="#9E5BF1"/>
<stop offset="1" stop-color="#356FF4"/>
</linearGradient>
</defs>
</svg>
