<svg width="21" height="21" viewBox="0 0 21 21" fill="none" xmlns="http://www.w3.org/2000/svg">
<g clip-path="url(#clip0_375_5166)">
<path d="M20.4299 10.4949V10.4849C20.4299 4.99799 15.9657 0.533386 10.4788 0.533386C4.99194 0.533386 0.527344 4.99799 0.527344 10.4849C0.527344 15.9717 4.99152 20.4359 10.4788 20.4359C15.9556 20.4359 20.4131 15.9885 20.4299 10.5155V10.4949ZM19.8175 10.5155C19.8159 11.2528 19.6711 11.9826 19.3912 12.6647H16.0136C16.6225 12.4196 17.1662 12.0365 17.6019 11.5457C18.0377 11.0548 18.3536 10.4695 18.5247 9.83586C18.6959 9.20221 18.7177 8.53748 18.5884 7.89397C18.4592 7.25046 18.1823 6.64573 17.7797 6.12737C18.4175 6.66268 18.9304 7.33107 19.2824 8.08565C19.6344 8.84023 19.8171 9.66271 19.8175 10.4954V10.5155ZM15.2786 9.42353C15.2789 9.65959 15.2092 9.89046 15.0783 10.0869C14.9474 10.2833 14.7612 10.4365 14.5432 10.5271C14.3252 10.6177 14.0852 10.6416 13.8536 10.5957C13.622 10.5499 13.4093 10.4363 13.2422 10.2695C13.0752 10.1027 12.9614 9.89012 12.9152 9.65861C12.869 9.4271 12.8925 9.1871 12.9828 8.96897C13.0731 8.75084 13.226 8.56438 13.4223 8.4332C13.6185 8.30201 13.8493 8.23199 14.0854 8.23199C14.4018 8.23232 14.7052 8.3582 14.9289 8.58199C15.1526 8.80578 15.2784 9.10919 15.2786 9.42563V9.42353ZM12.2798 9.42353C12.2799 9.70536 12.3461 9.98325 12.4729 10.235C12.5997 10.4867 12.7836 10.7052 13.01 10.8731C13.2364 11.041 13.4989 11.1535 13.7766 11.2018C14.0542 11.2501 14.3394 11.2327 14.6091 11.151C14.3584 11.3518 14.0632 11.4895 13.7483 11.5527C13.4334 11.6159 13.1079 11.6027 12.7992 11.5142C12.4904 11.4257 12.2074 11.2645 11.9737 11.0441C11.7401 10.8237 11.5627 10.5505 11.4564 10.2474C11.3501 9.94429 11.318 9.62014 11.3628 9.30209C11.4076 8.98404 11.528 8.68135 11.7138 8.41939C11.8997 8.15744 12.1456 7.94384 12.431 7.79651C12.7164 7.64917 13.033 7.57239 13.3541 7.57259C13.5241 7.57246 13.6935 7.59377 13.8581 7.63601C13.4224 7.69137 13.0218 7.90361 12.7313 8.23302C12.4408 8.56242 12.2803 8.98641 12.2798 9.42563V9.42353ZM13.3638 12.2035C13.8577 12.2021 14.3411 12.0613 14.7584 11.7973C15.1758 11.5332 15.5101 11.1568 15.723 10.7111C15.9359 10.2655 16.0186 9.76886 15.9617 9.2783C15.9047 8.78774 15.7105 8.32322 15.4012 7.93818C15.092 7.55313 14.6803 7.26322 14.2136 7.1018C13.7469 6.94037 13.2441 6.91399 12.763 7.02569C12.2819 7.13738 11.8422 7.38262 11.4944 7.73319C11.1465 8.08375 10.9047 8.5254 10.7968 9.00731C10.7896 8.91365 10.785 8.81957 10.785 8.72423C10.7848 7.95892 11.026 7.21306 11.4743 6.59277C11.9225 5.97248 12.555 5.50937 13.2817 5.26933C14.0084 5.0293 14.7923 5.02456 15.5218 5.25581C16.2513 5.48706 16.8893 5.94251 17.345 6.55734C17.8007 7.17217 18.0509 7.91507 18.06 8.68032C18.069 9.44557 17.8365 10.1942 17.3955 10.8196C16.9545 11.4451 16.3274 11.9155 15.6036 12.164C14.8797 12.4124 14.096 12.4263 13.3638 12.2035ZM10.1718 8.72423C10.1728 9.57047 10.4262 10.3972 10.8994 11.0987C11.3727 11.8003 12.0444 12.3447 12.8287 12.6626H8.8047C8.52278 11.9764 8.37782 11.2418 8.37798 10.5C8.37798 8.01023 9.97776 5.88839 12.2025 5.10425C11.5826 5.48399 11.0705 6.01638 10.7151 6.65053C10.3598 7.28468 10.173 7.99939 10.1726 8.72633L10.1718 8.72423ZM13.7909 13.2749V16.212C12.8246 16.1592 11.8875 15.8623 11.067 15.3491C10.2465 14.8359 9.56949 14.1232 9.09912 13.2774L13.7909 13.2749ZM14.4033 13.2749H19.096C18.6259 14.1211 17.949 14.8344 17.1285 15.348C16.308 15.8617 15.3707 16.1589 14.4041 16.212L14.4033 13.2749ZM10.4788 19.824C5.3292 19.824 1.1397 15.6341 1.1397 10.4849C1.1397 5.33567 5.3292 1.14575 10.4788 1.14575C14.1194 1.14575 17.2795 3.23987 18.8192 6.28655C18.2264 5.62009 17.4992 5.08674 16.6855 4.7216C15.8717 4.35646 14.9899 4.16781 14.098 4.16807C10.6065 4.16807 7.76814 7.00853 7.76814 10.5C7.76814 13.9914 10.6086 16.8323 14.1001 16.8323C14.9824 16.8327 15.8551 16.6481 16.6618 16.2906C17.4686 15.9331 18.1914 15.4106 18.7839 14.7567C17.2286 17.7635 14.09 19.824 10.4788 19.824Z" fill="url(#paint0_linear_375_5166)"/>
</g>
<defs>
<linearGradient id="paint0_linear_375_5166" x1="10.4786" y1="0.533386" x2="10.4786" y2="20.4359" gradientUnits="userSpaceOnUse">
<stop stop-color="white"/>
<stop offset="1" stop-color="#A6A6A6"/>
</linearGradient>
<clipPath id="clip0_375_5166">
<rect width="21" height="21" fill="white"/>
</clipPath>
</defs>
</svg>
