<svg width="19" height="19" viewBox="0 0 19 19" fill="none" xmlns="http://www.w3.org/2000/svg">
<path d="M5.89792 16.625V15.4375H8.90625V12.5083C8.19375 12.3632 7.56042 12.0564 7.00625 11.588C6.45208 11.1196 6.06944 10.5358 5.85833 9.83646C4.88194 9.7309 4.05729 9.33507 3.38437 8.64896C2.71146 7.96285 2.375 7.13819 2.375 6.175V5.30417C2.375 4.97431 2.49045 4.69392 2.72135 4.46302C2.95226 4.23212 3.23264 4.11667 3.5625 4.11667H5.62083V2.375H13.3792V4.11667H15.4375C15.7674 4.11667 16.0477 4.23212 16.2786 4.46302C16.5095 4.69392 16.625 4.97431 16.625 5.30417V6.175C16.625 7.13819 16.2885 7.96285 15.6156 8.64896C14.9427 9.33507 14.1181 9.7309 13.1417 9.83646C12.9306 10.5358 12.5479 11.1196 11.9937 11.588C11.4396 12.0564 10.8062 12.3632 10.0938 12.5083V15.4375H13.1021V16.625H5.89792ZM5.62083 8.58958V5.30417H3.5625V6.175C3.5625 6.76875 3.75712 7.28663 4.14635 7.72865C4.53559 8.17066 5.02708 8.45764 5.62083 8.58958ZM9.5 11.3802C10.2521 11.3802 10.8887 11.1163 11.4099 10.5885C11.9311 10.0608 12.1917 9.42083 12.1917 8.66875V3.5625H6.80833V8.66875C6.80833 9.42083 7.06892 10.0608 7.5901 10.5885C8.11128 11.1163 8.74792 11.3802 9.5 11.3802ZM13.3792 8.58958C13.9729 8.45764 14.4644 8.17066 14.8536 7.72865C15.2429 7.28663 15.4375 6.76875 15.4375 6.175V5.30417H13.3792V8.58958Z" fill="white"/>
</svg>
