<svg width="23" height="28" viewBox="0 0 23 28" fill="none" xmlns="http://www.w3.org/2000/svg">
<mask id="mask0_687_11009" style="mask-type:luminance" maskUnits="userSpaceOnUse" x="0" y="0" width="23" height="28">
<path d="M22.7553 0.42627H0.229004V27.416H22.7553V0.42627Z" fill="white"/>
</mask>
<g mask="url(#mask0_687_11009)">
<path d="M9.90843 8.85314C9.90843 8.85314 10.4683 8.27351 11.4848 8.27351C12.5014 8.27351 13.0612 8.85314 13.0612 8.85314C19.3226 5.65776 20.1182 1.74901 20.1182 1.74901C19.3226 2.96771 18.0409 3.3244 18.0409 3.3244C15.5805 0.455994 11.4848 0.42627 11.4848 0.42627C11.4848 0.42627 7.40388 0.455994 4.94352 3.30954C4.94352 3.30954 3.66178 2.95284 2.86621 1.73414C2.86621 1.74901 3.66177 5.65776 9.90843 8.85314Z" fill="white"/>
<path d="M6.82937 10.1756C7.80173 10.8444 9.12767 10.1756 9.12767 10.1756C9.12767 10.1756 7.25662 9.07585 6.26953 8.13953C6.26953 8.13953 5.85702 9.50685 6.82937 10.1756Z" fill="white"/>
<path d="M11.4847 9.80408C11.4847 9.80408 9.45163 10.0567 9.45163 12.5387C9.45163 14.0249 9.45163 14.0249 9.45163 14.0249L7.91943 14.9613C7.91943 14.9613 9.84941 15.4368 11.4847 20.6238C13.1201 15.4368 15.0501 14.9613 15.0501 14.9613L13.5179 14.0249C13.5179 14.0249 13.5179 14.0249 13.5179 12.5387C13.5326 10.0716 11.4847 9.80408 11.4847 9.80408Z" fill="white"/>
<path d="M20.6927 16.1803C20.5012 13.3862 20.8548 7.27788 19.3815 5.33093C19.3815 5.33093 18.4828 6.5645 17.864 7.18871C17.864 7.18871 18.3649 8.03585 18.3649 9.16538C18.3649 10.2949 17.3336 11.9297 14.947 11.9297L15.0501 13.2822L17.9082 15.0508C17.9082 15.0508 14.9617 15.4372 13.5915 19.0933C12.2214 22.7494 11.4848 25.5881 11.4848 25.5881C11.4848 25.5881 10.7481 22.7494 9.378 19.0933C8.00786 15.4372 5.06132 15.0508 5.06132 15.0508L7.91946 13.2822L8.02259 11.9297C5.6359 11.9297 4.60461 10.28 4.60461 9.16538C4.60461 8.05071 5.10552 7.18871 5.10552 7.18871C4.50148 6.5645 3.60279 5.33093 3.60279 5.33093C2.12952 7.27788 2.4831 13.3862 2.29158 16.1803C2.10005 18.9596 0.229004 22.5265 0.229004 22.5265C0.729915 22.3036 3.21974 20.0148 3.21974 20.0148L5.5033 23.552L7.78687 21.4713L11.4995 27.3864L15.2121 21.4713L17.4957 23.552L19.7793 20.0148C19.7793 20.0148 22.2691 22.2887 22.77 22.5265C22.7553 22.5414 20.8842 18.9596 20.6927 16.1803Z" fill="white"/>
<path d="M16.1543 10.1756C17.1266 9.50685 16.7141 8.13953 16.7141 8.13953C15.7123 9.07585 13.856 10.1756 13.856 10.1756C13.856 10.1756 15.1672 10.8296 16.1543 10.1756Z" fill="white"/>
</g>
</svg>
