<svg width="28" height="28" viewBox="0 0 28 28" fill="none" xmlns="http://www.w3.org/2000/svg">
<g clip-path="url(#clip0_687_11036)">
<path d="M10.3676 3.13464C10.3676 3.13464 6.62359 3.38984 4.17504 5.34026C4.16356 5.34481 4.14977 5.35165 4.13829 5.35849C3.71335 5.74811 3.39408 6.35192 2.999 7.21776C2.60392 8.0836 2.18588 9.1978 1.80458 10.4442C1.04429 12.9391 0.426413 16.0015 0.426413 18.8838C0.424116 18.9864 0.449383 19.0866 0.499916 19.1755C1.35898 20.6725 2.93928 21.577 4.41392 22.1467C5.88857 22.7163 7.25066 22.9442 7.94204 22.9669C8.13728 22.9738 8.32334 22.8849 8.43818 22.73L9.87148 20.7613C11.0269 21.0325 12.3821 21.217 13.9509 21.217C15.5197 21.217 16.8749 21.0325 18.0303 20.7613L19.4636 22.73C19.5784 22.8849 19.7645 22.9738 19.9597 22.9669C20.6511 22.9442 22.0132 22.7163 23.4878 22.1467C24.9625 21.577 26.5428 20.6725 27.4018 19.1755C27.4524 19.0866 27.4776 18.9864 27.4753 18.8838C27.4753 16.0015 26.8574 12.9391 26.0972 10.4442C25.7159 9.1978 25.2978 8.0836 24.9027 7.21776C24.5077 6.35192 24.1884 5.74811 23.7635 5.35849C23.752 5.35165 23.7382 5.34481 23.7267 5.34026C21.2782 3.38984 17.5341 3.13464 17.5341 3.13464C17.4905 3.13009 17.4491 3.13009 17.4055 3.13464C17.2011 3.16199 17.0288 3.29414 16.9461 3.48098C16.9461 3.48098 16.7463 3.91618 16.6153 4.53822C15.4692 4.35593 14.5044 4.30125 13.9509 4.30125C13.3973 4.30125 12.4326 4.35593 11.2864 4.53822C11.1555 3.91618 10.9556 3.48098 10.9556 3.48098C10.8546 3.25313 10.618 3.11414 10.3676 3.13464ZM10.0001 4.39239C10.0438 4.51087 10.0736 4.62252 10.1104 4.75695C8.78502 5.06228 7.33335 5.56127 5.97585 6.39749C5.76223 6.48636 5.62212 6.69142 5.61523 6.92156C5.61064 7.14941 5.74156 7.36131 5.94829 7.46157C6.15731 7.55954 6.40538 7.52992 6.58225 7.38182C9.30643 5.7071 12.7725 5.46785 13.9509 5.46785C15.1292 5.46785 18.5953 5.7071 21.3195 7.38182C21.4964 7.52992 21.7444 7.55954 21.9535 7.46157C22.1602 7.36131 22.2911 7.14941 22.2865 6.92156C22.2796 6.69142 22.1395 6.48636 21.9259 6.39749C20.5684 5.56127 19.1167 5.06228 17.7914 4.75695C17.8281 4.62252 17.858 4.51087 17.9016 4.39239C18.5723 4.47442 21.1794 4.82303 22.9549 6.21521C23.0698 6.32002 23.4694 6.90333 23.837 7.70992C24.2045 8.51652 24.5904 9.56692 24.9579 10.7723C25.6745 13.1237 26.2533 16.0243 26.2809 18.6833C25.6125 19.7565 24.3584 20.554 23.0652 21.053C21.8891 21.5064 20.7912 21.7092 20.217 21.7639L19.2247 20.4332C19.73 20.2714 20.1848 20.096 20.5845 19.9228C22.0683 19.2757 22.863 18.5922 22.863 18.5922C23.1065 18.3757 23.1272 18.0043 22.909 17.7628C22.6908 17.5213 22.3164 17.5008 22.0729 17.7172C22.0729 17.7172 21.4573 18.2755 20.1067 18.8656C19.6106 19.0821 19.0088 19.2962 18.3243 19.4854C18.1658 19.4671 18.0073 19.5127 17.8833 19.6129C16.7876 19.8773 15.4852 20.0504 13.9509 20.0504C12.405 20.0504 11.1004 19.8613 10.0001 19.5947C9.87608 19.5127 9.72448 19.4785 9.57747 19.5036C8.89068 19.3145 8.29348 19.0821 7.79504 18.8656C6.44443 18.2755 5.82885 17.7172 5.82885 17.7172C5.69562 17.5942 5.51187 17.5418 5.3327 17.5714C5.10531 17.6056 4.91696 17.7673 4.85494 17.9884C4.79062 18.2071 4.86413 18.4441 5.03869 18.5922C5.03869 18.5922 5.83344 19.2757 7.31727 19.9228C7.71694 20.096 8.17174 20.2714 8.67707 20.4332L7.68478 21.7639C7.11055 21.7092 6.0126 21.5064 4.83656 21.053C3.54338 20.554 2.28924 19.7565 1.62083 18.6833C1.64839 16.0243 2.22722 13.1237 2.94387 10.7723C3.31139 9.56692 3.69727 8.51652 4.06479 7.70992C4.4323 6.90333 4.83197 6.32002 4.94682 6.21521C6.72236 4.82303 9.3294 4.47442 10.0001 4.39239ZM10.1287 11.3009C8.62883 11.3009 7.48265 12.652 7.48265 14.2174C7.48265 15.7827 8.62883 17.1339 10.1287 17.1339C11.6287 17.1339 12.7748 15.7827 12.7748 14.2174C12.7748 12.652 11.6287 11.3009 10.1287 11.3009ZM17.773 11.3009C16.2731 11.3009 15.1269 12.652 15.1269 14.2174C15.1269 15.7827 16.2731 17.1339 17.773 17.1339C19.2729 17.1339 20.4191 15.7827 20.4191 14.2174C20.4191 12.652 19.2729 11.3009 17.773 11.3009ZM10.1287 12.4675C10.9028 12.4675 11.5988 13.2057 11.5988 14.2174C11.5988 15.2291 10.9028 15.9673 10.1287 15.9673C9.35467 15.9673 8.65869 15.2291 8.65869 14.2174C8.65869 13.2057 9.35467 12.4675 10.1287 12.4675ZM17.773 12.4675C18.5471 12.4675 19.2431 13.2057 19.2431 14.2174C19.2431 15.2291 18.5471 15.9673 17.773 15.9673C16.9989 15.9673 16.303 15.2291 16.303 14.2174C16.303 13.2057 16.9989 12.4675 17.773 12.4675Z" fill="white"/>
</g>
<defs>
<clipPath id="clip0_687_11036">
<rect width="27.0492" height="27.0492" fill="white" transform="translate(0.42627 0.42627)"/>
</clipPath>
</defs>
</svg>
