<svg width="60" height="60" viewBox="0 0 60 60" fill="none" xmlns="http://www.w3.org/2000/svg">
<path d="M19.75 51.25H40.25V43.3125C40.25 40.3958 39.2604 37.8854 37.2812 35.7812C35.3021 33.6771 32.875 32.625 30 32.625C27.125 32.625 24.6979 33.6771 22.7188 35.7812C20.7396 37.8854 19.75 40.3958 19.75 43.3125V51.25ZM30 27.375C32.875 27.375 35.3021 26.3229 37.2812 24.2188C39.2604 22.1146 40.25 19.5833 40.25 16.625V8.75H19.75V16.625C19.75 19.5833 20.7396 22.1146 22.7188 24.2188C24.6979 26.3229 27.125 27.375 30 27.375ZM10 55V51.25H16V43.3125C16 40.3958 16.7604 37.7188 18.2812 35.2812C19.8021 32.8438 21.9167 31.0833 24.625 30C21.9167 28.9167 19.8021 27.1458 18.2812 24.6875C16.7604 22.2292 16 19.5417 16 16.625V8.75H10V5H50V8.75H44V16.625C44 19.5417 43.2396 22.2292 41.7188 24.6875C40.1979 27.1458 38.0833 28.9167 35.375 30C38.0833 31.0833 40.1979 32.8438 41.7188 35.2812C43.2396 37.7188 44 40.3958 44 43.3125V51.25H50V55H10Z" fill="url(#paint0_linear_411_23280)"/>
<defs>
<linearGradient id="paint0_linear_411_23280" x1="10.7812" y1="49.6629" x2="57.2882" y2="34.2896" gradientUnits="userSpaceOnUse">
<stop stop-color="#3F4AB3"/>
<stop offset="1" stop-color="#7A64D0"/>
</linearGradient>
</defs>
</svg>
