<svg width="28" height="28" viewBox="0 0 28 28" fill="none" xmlns="http://www.w3.org/2000/svg">
<g clip-path="url(#clip0_687_10983)">
<path d="M25.8658 10.1332L24.3826 8.65002C23.3728 9.47277 21.6259 10.1648 20.5259 10.5232C20.4763 10.539 20.4289 10.5592 20.3794 10.5773C20.0886 10.8636 19.8046 11.1656 19.5386 11.4834L21.7048 13.6496L25.7554 17.7002L25.8658 17.5898C27.9238 15.5295 27.9238 12.1912 25.8658 10.1332Z" fill="white"/>
<path d="M25.8658 10.1332L24.3826 8.65002C23.3728 9.47277 21.6259 10.1648 20.5259 10.5232C20.4763 10.539 20.4289 10.5592 20.3794 10.5773C20.0886 10.8636 19.8046 11.1656 19.5386 11.4834L21.7048 13.6496L25.7554 17.7002L25.8658 17.5898C27.9238 15.5295 27.9238 12.1912 25.8658 10.1332Z" fill="white"/>
<path d="M6.17611 13.6474L10.3935 9.42998C10.504 9.12793 10.6234 8.82363 10.7564 8.52609C12.0278 5.6769 14.8814 4.70989 17.5661 4.66256C17.92 4.03592 18.5894 3.61891 19.3423 3.60989L17.6675 1.9351C15.6095 -0.122897 12.2712 -0.122897 10.2132 1.9351L10.1027 2.04555L2.12549 10.0228L6.17611 14.0734C6.05889 13.9562 6.05889 13.7646 6.17611 13.6474Z" fill="white"/>
<path d="M6.17611 13.6474L10.3935 9.42998C10.504 9.12793 10.6234 8.82363 10.7564 8.52609C12.0278 5.6769 14.8814 4.70989 17.5661 4.66256C17.92 4.03592 18.5894 3.61891 19.3423 3.60989L17.6675 1.9351C15.6095 -0.122897 12.2712 -0.122897 10.2132 1.9351L10.1027 2.04555L2.12549 10.0228L6.17611 14.0734C6.05889 13.9562 6.05889 13.7646 6.17611 13.6474Z" fill="white"/>
<path d="M20.7504 5.01812C20.746 5.01365 20.746 5.01365 20.7504 5.01812Z" fill="white"/>
<path d="M21.7047 13.6474C21.822 13.7646 21.822 13.9562 21.7047 14.0734L17.9742 17.804L17.0568 18.7214L14.5728 21.2054L14.1535 21.6247C14.0363 21.7419 13.8447 21.7419 13.7275 21.6247L9.95186 17.8491L7.4701 15.3673L6.17624 14.0734L2.12563 10.0228L2.01517 10.1333C-0.0428186 12.1913 -0.0428186 15.5296 2.01517 17.5876L2.95288 18.5253L9.99694 25.5694L10.2133 25.7858C12.2713 27.8437 15.6097 27.8437 17.6676 25.7858L17.7781 25.6753L25.7554 17.698L21.7047 13.6474Z" fill="white"/>
<path d="M20.7467 5.01642C20.7467 5.01416 20.7467 5.01416 20.7467 5.01642C20.6002 4.69182 20.3409 4.42133 19.9961 4.26355C19.9848 4.25904 19.9758 4.25228 19.9645 4.24777C19.9194 4.22748 19.8721 4.2117 19.827 4.19592C19.8541 4.35822 19.836 4.53178 19.7662 4.69408C19.7481 4.73465 19.7256 4.77297 19.7008 4.81129C19.4686 5.18773 18.993 5.35002 18.576 5.17195C18.3776 5.08855 18.2266 4.93978 18.1319 4.76396C18.0711 4.84961 18.017 4.94428 17.9741 5.04572C17.645 5.81662 18.0012 6.70699 18.7721 7.03609C19.543 7.36519 20.4334 7.00904 20.7625 6.23814C20.936 5.83015 20.918 5.3906 20.7467 5.01642Z" fill="#242132"/>
<path d="M10.4094 9.38708C10.4049 9.40061 10.3958 9.41413 10.3936 9.42991C9.61142 13.5639 9.22597 14.1455 7.46777 15.3672L8.09216 15.9916C8.50015 15.5881 9.08622 14.8939 9.64073 13.8186C10.3237 12.5023 10.4184 10.5141 10.4094 9.38708Z" fill="white"/>
<path d="M19.3065 11.1949C19.2953 11.204 19.2818 11.2152 19.2727 11.222C18.8805 11.5376 18.5131 11.9388 18.193 12.4189C17.2283 13.8593 16.6738 16.0119 17.057 18.7214L17.0547 18.7236C17.0547 18.7236 17.0547 18.7236 17.0547 18.7259L18.5244 17.2833C18.4613 17.0691 18.4027 16.846 18.3486 16.6138C17.8414 14.4679 18.2178 13.0546 19.5365 11.488C19.701 11.2919 20.082 10.9019 20.4178 10.566C20.4043 10.5705 20.393 10.5751 20.3795 10.5796C20.0121 10.7148 19.6514 10.9222 19.3065 11.1949Z" fill="white"/>
<path d="M18.1926 12.4189C17.2278 13.8593 16.671 16.012 17.0542 18.7237L17.0565 18.7214C16.6733 16.012 17.2278 13.8593 18.1926 12.4189Z" fill="white"/>
<path d="M18.1926 12.4189C17.2278 13.8593 16.671 16.012 17.0542 18.7237L17.0565 18.7214C16.6733 16.012 17.2278 13.8593 18.1926 12.4189Z" fill="white"/>
<path d="M25.4036 6.60784C24.5403 5.39062 21.9233 4.8271 21.9233 4.8271C21.9233 4.8271 21.5671 3.8398 20.6452 3.53099C19.8112 3.25373 18.5557 3.75189 18.5557 3.75189L18.5737 3.76767C18.8126 3.66849 19.0719 3.61214 19.3423 3.60763C19.4077 3.60763 19.4708 3.60763 19.5362 3.61439C20.4378 3.68878 21.1569 4.33119 21.3688 5.1607C25.7643 6.24943 25.7124 7.56357 24.3803 8.6478C24.3284 8.69062 24.2721 8.73345 24.2157 8.77403L24.2383 8.79431C24.2405 8.79657 26.2309 7.77546 25.4036 6.60784Z" fill="white"/>
<path d="M21.3713 5.16294C21.1571 4.33343 20.4403 3.69101 19.5387 3.61663C19.4733 3.61212 19.4079 3.60986 19.3448 3.60986C19.0743 3.61212 18.8151 3.67072 18.5762 3.7699C18.1524 3.94798 17.7963 4.2613 17.5709 4.66253C14.884 4.70986 12.0325 5.67462 10.7612 8.52606C10.635 8.81007 10.5223 9.0986 10.4141 9.38712C10.4231 10.5142 10.3262 12.5045 9.64769 13.8187C9.09318 14.8939 8.50711 15.5882 8.09912 15.9916L9.9565 17.849L13.7321 21.6246C13.8493 21.7418 14.0409 21.7418 14.1581 21.6246L14.5774 21.2054L17.0592 18.7236C16.676 16.0119 17.2327 13.8593 18.1975 12.4189C18.5198 11.9365 18.8872 11.5353 19.2795 11.2175C19.2907 11.2084 19.2997 11.2017 19.311 11.1927C19.6536 10.9222 20.0165 10.7125 20.384 10.575C20.3975 10.5705 20.4088 10.566 20.4223 10.5615C20.4584 10.548 20.4944 10.5345 20.5305 10.5209C21.5719 10.1806 23.1948 9.5404 24.2227 8.77401C24.2791 8.73118 24.3332 8.69061 24.3872 8.64778C25.7149 7.56356 25.7668 6.24941 21.3713 5.16294ZM20.7627 6.23814C20.4336 7.00905 19.5409 7.36519 18.7723 7.0361C18.0014 6.707 17.6452 5.81437 17.9743 5.04573C18.0172 4.94429 18.0713 4.84962 18.1321 4.76396C18.2268 4.93978 18.3778 5.0863 18.5762 5.17195C18.9954 5.35003 19.4711 5.18773 19.701 4.8113C19.7055 4.80228 19.71 4.79327 19.7168 4.78425C19.7348 4.75495 19.7528 4.7279 19.7663 4.69634C19.8362 4.53404 19.8543 4.36048 19.8272 4.19818C19.8745 4.21396 19.9196 4.22974 19.9647 4.25003C19.976 4.25454 19.985 4.2613 19.9963 4.26581C20.3411 4.42359 20.6004 4.69409 20.7469 5.01642L20.7491 5.01868C20.7491 5.01868 20.7491 5.01868 20.7469 5.01868C20.8573 5.26437 20.9024 5.53712 20.8731 5.81212C20.8573 5.95413 20.8235 6.09839 20.7627 6.23814Z" fill="white"/>
</g>
<defs>
<clipPath id="clip0_687_10983">
<rect width="27.0492" height="27.0492" fill="white" transform="translate(0.42627 0.327881)"/>
</clipPath>
</defs>
</svg>
