<svg width="28" height="28" viewBox="0 0 28 28" fill="none" xmlns="http://www.w3.org/2000/svg">
<g clip-path="url(#clip0_687_11021)">
<path d="M12.6007 20.4539C12.7048 20.454 12.8078 20.4747 12.9038 20.5146C12.9999 20.5546 13.0872 20.6131 13.1606 20.6867C13.2341 20.7604 13.2923 20.8479 13.332 20.944C13.3717 21.0402 13.3921 21.1433 13.3919 21.2473C13.3918 21.3514 13.3711 21.4544 13.3312 21.5505C13.2912 21.6465 13.2327 21.7338 13.159 21.8073C13.0854 21.8807 12.9979 21.939 12.9018 21.9786C12.8056 22.0183 12.7025 22.0387 12.5985 22.0385C12.3883 22.0382 12.1869 21.9545 12.0385 21.8057C11.8902 21.6569 11.807 21.4552 11.8073 21.2451C11.8076 21.0349 11.8913 20.8335 12.0401 20.6852C12.1889 20.5368 12.3906 20.4536 12.6007 20.4539ZM25.0253 15.5546C24.9213 15.5545 24.8183 15.534 24.7222 15.4941C24.6261 15.4542 24.5388 15.3958 24.4652 15.3221C24.3917 15.2485 24.3334 15.1611 24.2937 15.065C24.2539 14.9688 24.2335 14.8658 24.2336 14.7617C24.2336 14.6577 24.2542 14.5547 24.2941 14.4586C24.334 14.3625 24.3924 14.2752 24.466 14.2016C24.5397 14.1281 24.627 14.0698 24.7232 14.0301C24.8194 13.9903 24.9224 13.9699 25.0264 13.97C25.2366 13.9701 25.438 14.0537 25.5865 14.2024C25.735 14.3511 25.8183 14.5527 25.8182 14.7628C25.818 14.973 25.7344 15.1745 25.5857 15.3229C25.437 15.4714 25.2355 15.5548 25.0253 15.5546ZM25.0253 12.3132C24.3757 12.3138 23.7528 12.5721 23.2934 13.0315C22.834 13.4909 22.5757 14.1138 22.5751 14.7634C22.5751 15.026 22.6191 15.2875 22.7047 15.5422L14.6114 19.8509C14.387 19.5251 14.0867 19.2587 13.7364 19.0747C13.3861 18.8907 12.9964 18.7947 12.6007 18.7949C11.6664 18.7949 10.8155 19.3302 10.403 20.1654L3.13237 16.3311C2.36372 15.9277 1.78893 14.6631 1.84979 13.5113C1.88135 12.9105 2.08872 12.4439 2.40542 12.2636C2.60604 12.1509 2.84723 12.1599 3.1042 12.294L3.15153 12.32C5.07879 13.3343 11.3835 16.6557 11.6495 16.7786C12.0586 16.969 12.2863 17.0457 12.985 16.7143L26.0182 9.93626C26.2098 9.86413 26.433 9.68042 26.433 9.40204C26.433 9.01659 26.034 8.86443 26.0329 8.86443C25.2913 8.50941 24.1519 7.97632 23.0406 7.45562C20.6648 6.34322 17.9722 5.08318 16.79 4.4633C15.7689 3.92908 14.9472 4.3799 14.8007 4.47007L14.5167 4.61095C9.19477 7.24261 2.07182 10.7703 1.66608 11.0171C0.941386 11.4589 0.491693 12.3391 0.433087 13.4312C0.342923 15.1635 1.2254 16.9702 2.48883 17.6318L10.1776 21.5967C10.2623 22.1791 10.5537 22.7117 10.9986 23.097C11.4435 23.4823 12.0122 23.6946 12.6007 23.6953C13.2435 23.6942 13.8602 23.4409 14.3182 22.9899C14.7762 22.5388 15.0389 21.9261 15.0498 21.2834L23.5185 16.6929C23.9467 17.0288 24.4798 17.2125 25.0253 17.2125C25.675 17.2119 26.2978 16.9536 26.7572 16.4942C27.2166 16.0348 27.4749 15.4119 27.4755 14.7623C27.4749 14.1126 27.2166 13.4898 26.7572 13.0304C26.2978 12.571 25.675 12.3127 25.0253 12.3121" fill="white"/>
</g>
<defs>
<clipPath id="clip0_687_11021">
<rect width="27.0492" height="27.0492" fill="white" transform="translate(0.42627 0.42627)"/>
</clipPath>
</defs>
</svg>
