<svg width="18" height="18" viewBox="0 0 18 18" fill="none" xmlns="http://www.w3.org/2000/svg">
<path d="M9.5625 15.1126V9.31885L14.625 6.39385V12.1876L9.5625 15.1126ZM8.4375 15.1126L3.375 12.1876V6.3751L8.4375 9.31581V15.1126ZM9 8.3626L4.0125 5.45635L9 2.56885L14.0062 5.45635L9 8.3626ZM15.1875 13.1626C15.3656 13.0573 15.5039 12.9184 15.6023 12.7461C15.7008 12.5738 15.75 12.3876 15.75 12.1876V5.8126C15.75 5.6126 15.7008 5.42643 15.6023 5.25409C15.5039 5.08175 15.3656 4.94292 15.1875 4.8376L9.5625 1.59385C9.3834 1.49385 9.19487 1.44385 8.99692 1.44385C8.79897 1.44385 8.6125 1.49385 8.4375 1.59385L2.8125 4.8376C2.63437 4.94292 2.49609 5.08175 2.39766 5.25409C2.29922 5.42643 2.25 5.6126 2.25 5.8126V12.1876C2.25 12.3876 2.29922 12.5738 2.39766 12.7461C2.49609 12.9184 2.63437 13.0573 2.8125 13.1626L8.4375 16.4063C8.6166 16.5063 8.80512 16.5563 9.00307 16.5563C9.20102 16.5563 9.3875 16.5063 9.5625 16.4063L15.1875 13.1626Z" fill="url(#paint0_linear_201_541)"/>
<defs>
<linearGradient id="paint0_linear_201_541" x1="15.4863" y1="14.9432" x2="0.16283" y2="9.28716" gradientUnits="userSpaceOnUse">
<stop stop-color="#3F4AB3"/>
<stop offset="1" stop-color="#7A64D0"/>
</linearGradient>
</defs>
</svg>
