<svg width="51" height="51" viewBox="0 0 51 51" fill="none" xmlns="http://www.w3.org/2000/svg">
<path d="M5.83908 43.0313C4.81511 43.0313 3.9401 42.6667 3.21406 41.9375C2.48802 41.2083 2.125 40.3317 2.125 39.3078C2.125 38.2838 2.48791 37.4089 3.21374 36.6828C3.93957 35.9568 4.81212 35.5938 5.83137 35.5938C6.01671 35.5938 6.19792 35.6026 6.375 35.6203C6.55208 35.638 6.78229 35.6823 7.06563 35.7531L17.6906 25.1281C17.6198 24.8448 17.5755 24.6146 17.5578 24.4375C17.5401 24.2604 17.5312 24.0792 17.5312 23.8939C17.5312 22.8746 17.8958 22.0021 18.625 21.2762C19.3542 20.5504 20.2308 20.1875 21.2547 20.1875C22.2787 20.1875 23.1536 20.5529 23.8797 21.2837C24.6057 22.0145 24.9688 22.893 24.9688 23.9192C24.9688 23.9814 24.9156 24.3844 24.8094 25.1281L30.6531 30.9719C30.9365 30.901 31.1667 30.8568 31.3438 30.8391C31.5208 30.8214 31.6979 30.8125 31.875 30.8125C32.0521 30.8125 32.2292 30.8214 32.4062 30.8391C32.5833 30.8568 32.8135 30.901 33.0969 30.9719L41.5969 22.4719C41.526 22.1885 41.4818 21.9583 41.4641 21.7813C41.4464 21.6042 41.4375 21.423 41.4375 21.2376C41.4375 20.2184 41.8021 19.3458 42.5313 18.62C43.2604 17.8942 44.137 17.5313 45.161 17.5313C46.1849 17.5313 47.0599 17.8959 47.7859 18.625C48.512 19.3542 48.875 20.2308 48.875 21.2547C48.875 22.2787 48.5121 23.1537 47.7863 23.8797C47.0604 24.6057 46.1879 24.9688 45.1686 24.9688C44.9833 24.9688 44.8021 24.9599 44.625 24.9422C44.4479 24.9245 44.2177 24.8802 43.9344 24.8094L35.4344 33.3094C35.5052 33.5927 35.5495 33.8229 35.5672 34C35.5849 34.1771 35.5938 34.3583 35.5938 34.5436C35.5938 35.5629 35.2292 36.4354 34.5 37.1613C33.7708 37.8871 32.8942 38.25 31.8703 38.25C30.8463 38.25 29.9714 37.8871 29.2453 37.1613C28.5193 36.4354 28.1562 35.5629 28.1562 34.5436C28.1562 34.3583 28.1651 34.1771 28.1828 34C28.2005 33.8229 28.2448 33.5927 28.3156 33.3094L22.4719 27.4656C22.1885 27.5365 21.9583 27.5807 21.7812 27.5984C21.6042 27.6162 21.4227 27.625 21.2367 27.625C21.1747 27.625 20.7719 27.5719 20.0281 27.4656L9.40313 38.0906C9.47396 38.374 9.51823 38.6042 9.53594 38.7813C9.55365 38.9583 9.5625 39.1395 9.5625 39.3249C9.5625 40.3441 9.1979 41.2167 8.46871 41.9425C7.73955 42.6683 6.86301 43.0313 5.83908 43.0313ZM8.5 19.55L7.42406 17.2259L5.1 16.15L7.42406 15.0741L8.5 12.75L9.57594 15.0741L11.9 16.15L9.57594 17.2259L8.5 19.55ZM31.875 16.8406L30.2432 13.3193L26.7219 11.6875L30.2432 10.0557L31.875 6.53438L33.5068 10.0557L37.0281 11.6875L33.5068 13.3193L31.875 16.8406Z" fill="url(#paint0_linear_113_2712)"/>
<defs>
<linearGradient id="paint0_linear_113_2712" x1="3.03808" y1="39.1355" x2="50.1381" y2="14.2065" gradientUnits="userSpaceOnUse">
<stop stop-color="#3F4AB3"/>
<stop offset="1" stop-color="#7A64D0"/>
</linearGradient>
</defs>
</svg>
