<svg width="53" height="53" viewBox="0 0 53 53" fill="none" xmlns="http://www.w3.org/2000/svg">
<path d="M12.1458 48.5833C11.2348 48.5833 10.455 48.259 9.8063 47.6103C9.1576 46.9616 8.83325 46.1818 8.83325 45.2708V21.3104C8.83325 20.3995 9.1576 19.6197 9.8063 18.971C10.455 18.3223 11.2348 17.9979 12.1458 17.9979H16.0103V12.6979C16.0103 9.79579 17.0336 7.322 19.0802 5.27653C21.1269 3.23106 23.602 2.20833 26.5058 2.20833C29.4095 2.20833 31.8827 3.23106 33.9254 5.27653C35.9681 7.322 36.9895 9.79579 36.9895 12.6979V17.9979H40.8541C41.765 17.9979 42.5448 18.3223 43.1935 18.971C43.8422 19.6197 44.1666 20.3995 44.1666 21.3104V45.2708C44.1666 46.1818 43.8422 46.9616 43.1935 47.6103C42.5448 48.259 41.765 48.5833 40.8541 48.5833H12.1458ZM12.1458 45.2708H40.8541V21.3104H12.1458V45.2708ZM26.5092 37.5417C27.6808 37.5417 28.6806 37.1362 29.5088 36.3254C30.3369 35.5145 30.751 34.5397 30.751 33.401C30.751 32.2969 30.3338 31.2939 29.4995 30.3922C28.6652 29.4904 27.6622 29.0396 26.4906 29.0396C25.319 29.0396 24.3192 29.4904 23.4911 30.3922C22.6629 31.2939 22.2489 32.3061 22.2489 33.4286C22.2489 34.5512 22.666 35.5174 23.5003 36.3271C24.3346 37.1368 25.3376 37.5417 26.5092 37.5417ZM19.3228 17.9979H33.677V12.6979C33.677 10.7043 32.9799 9.00968 31.5856 7.61416C30.1913 6.21861 28.4982 5.52083 26.5064 5.52083C24.5146 5.52083 22.8194 6.21861 21.4208 7.61416C20.0221 9.00968 19.3228 10.7043 19.3228 12.6979V17.9979Z" fill="url(#paint0_linear_113_2717)"/>
<defs>
<linearGradient id="paint0_linear_113_2717" x1="9.52336" y1="43.6332" x2="50.9842" y2="30.5806" gradientUnits="userSpaceOnUse">
<stop stop-color="#3F4AB3"/>
<stop offset="1" stop-color="#7A64D0"/>
</linearGradient>
</defs>
</svg>
