<svg width="23" height="23" viewBox="0 0 23 23" fill="none" xmlns="http://www.w3.org/2000/svg">
<path d="M5.27051 21.0859C4.8752 21.0859 4.53678 20.9452 4.25527 20.6637C3.97376 20.3822 3.83301 20.0437 3.83301 19.6484V9.25052C3.83301 8.85521 3.97376 8.5168 4.25527 8.23529C4.53678 7.95378 4.8752 7.81302 5.27051 7.81302H6.94759V5.51302C6.94759 4.25361 7.39167 3.18008 8.27982 2.29242C9.16797 1.40477 10.2421 0.960938 11.5022 0.960938C12.7623 0.960938 13.8356 1.40477 14.7221 2.29242C15.6085 3.18008 16.0518 4.25361 16.0518 5.51302V7.81302H17.7288C18.1242 7.81302 18.4626 7.95378 18.7441 8.23529C19.0256 8.5168 19.1663 8.85521 19.1663 9.25052V19.6484C19.1663 20.0437 19.0256 20.3822 18.7441 20.6637C18.4626 20.9452 18.1242 21.0859 17.7288 21.0859H5.27051ZM5.27051 19.6484H17.7288V9.25052H5.27051V19.6484ZM11.5037 16.2943C12.0121 16.2943 12.446 16.1183 12.8054 15.7664C13.1648 15.4146 13.3445 14.9915 13.3445 14.4974C13.3445 14.0182 13.1634 13.583 12.8014 13.1917C12.4393 12.8003 12.0041 12.6047 11.4956 12.6047C10.9872 12.6047 10.5533 12.8003 10.1939 13.1917C9.83457 13.583 9.65488 14.0222 9.65488 14.5094C9.65488 14.9965 9.83591 15.4158 10.198 15.7672C10.56 16.1186 10.9953 16.2943 11.5037 16.2943ZM8.38509 7.81302H14.6143V5.51302C14.6143 4.64785 14.3117 3.91247 13.7067 3.30687C13.1016 2.70125 12.3669 2.39844 11.5025 2.39844C10.6381 2.39844 9.90245 2.70125 9.29551 3.30687C8.68856 3.91247 8.38509 4.64785 8.38509 5.51302V7.81302Z" fill="white"/>
</svg>
