<svg width="60" height="60" viewBox="0 0 60 60" fill="none" xmlns="http://www.w3.org/2000/svg">
<g clip-path="url(#clip0_411_23315)">
<path d="M34 52C30.7143 52 27.5238 51.381 24.4286 50.1429C21.3333 48.9048 18.6429 47.2143 16.3571 45.0714L19.4286 42C21.3333 43.7619 23.5595 45.1548 26.1071 46.1786C28.6548 47.2024 31.2857 47.7143 34 47.7143C39.9524 47.7143 45.0595 45.5833 49.3214 41.3214C53.5833 37.0595 55.7143 31.9524 55.7143 26C55.7143 20.0476 53.5833 14.9405 49.3214 10.6786C45.0595 6.41667 39.9524 4.28571 34 4.28571C28.0476 4.28571 22.9405 6.41667 18.6786 10.6786C14.4167 14.9405 12.2857 20.0476 12.2857 26V27.2857L17.2857 22.2857L20.2857 25.2857L10.1429 35.4286L0 25.2857L3 22.2857L8 27.2857V26C8 22.381 8.67857 19 10.0357 15.8571C11.3929 12.7143 13.25 9.96429 15.6071 7.60714C17.9643 5.25 20.7143 3.39286 23.8571 2.03571C27 0.678571 30.381 0 34 0C37.619 0 41 0.678571 44.1429 2.03571C47.2857 3.39286 50.0357 5.25 52.3929 7.60714C54.75 9.96429 56.6071 12.7143 57.9643 15.8571C59.3214 19 60 22.381 60 26C60 33.2381 57.4762 39.381 52.4286 44.4286C47.381 49.4762 41.2381 52 34 52ZM28.2857 37.0714C27.619 37.0714 27.0357 36.8214 26.5357 36.3214C26.0357 35.8214 25.7857 35.2381 25.7857 34.5714V26C25.7857 25.3333 26.0595 24.75 26.6071 24.25C27.1548 23.75 27.8333 23.5 28.6429 23.5V20.2857C28.6429 18.8095 29.1667 17.5476 30.2143 16.5C31.2619 15.4524 32.5238 14.9286 34 14.9286C35.4762 14.9286 36.7381 15.4524 37.7857 16.5C38.8333 17.5476 39.3571 18.8095 39.3571 20.2857V23.5C40.1667 23.5 40.8452 23.75 41.3929 24.25C41.9405 24.75 42.2143 25.3333 42.2143 26V34.5714C42.2143 35.2381 41.9643 35.8214 41.4643 36.3214C40.9643 36.8214 40.381 37.0714 39.7143 37.0714H28.2857ZM30.7857 23.5H37.2143V20.2857C37.2143 19.381 36.9048 18.619 36.2857 18C35.6667 17.381 34.9048 17.0714 34 17.0714C33.0952 17.0714 32.3333 17.381 31.7143 18C31.0952 18.619 30.7857 19.381 30.7857 20.2857V23.5Z" fill="url(#paint0_linear_411_23315)"/>
</g>
<defs>
<linearGradient id="paint0_linear_411_23315" x1="1.17187" y1="46.4494" x2="64.2231" y2="16.3887" gradientUnits="userSpaceOnUse">
<stop stop-color="#3F4AB3"/>
<stop offset="1" stop-color="#7A64D0"/>
</linearGradient>
<clipPath id="clip0_411_23315">
<rect width="60" height="60" fill="white"/>
</clipPath>
</defs>
</svg>
