<svg width="28" height="28" viewBox="0 0 28 28" fill="none" xmlns="http://www.w3.org/2000/svg">
<path d="M8.54109 8.00006C11.8222 8.00006 14.4919 10.6698 14.4919 13.9509C14.4919 17.232 11.8222 19.9017 8.54109 19.9017C5.26002 19.9017 2.59027 17.232 2.59027 13.9509C2.59027 10.6698 5.26002 8.00006 8.54109 8.00006ZM8.54109 6.91809C4.65683 6.91809 1.5083 10.0666 1.5083 13.9509C1.5083 17.8351 4.65683 20.9837 8.54109 20.9837C12.4254 20.9837 15.5739 17.8351 15.5739 13.9509C15.5739 10.0666 12.4254 6.91809 8.54109 6.91809ZM19.6313 8.54104C20.7803 8.54104 22.0657 10.8548 22.0657 13.9509C22.0657 17.0469 20.7803 19.3607 19.6313 19.3607C18.4822 19.3607 17.1968 17.0469 17.1968 13.9509C17.1968 10.8548 18.4822 8.54104 19.6313 8.54104ZM19.6313 7.45907C17.6891 7.45907 16.1149 10.3658 16.1149 13.9509C16.1149 17.536 17.6891 20.4427 19.6313 20.4427C21.5734 20.4427 23.1477 17.536 23.1477 13.9509C23.1477 10.3658 21.5734 7.45907 19.6313 7.45907ZM25.0411 10.4761C25.1926 11.3314 25.3116 12.5048 25.3116 13.9509C25.3116 15.3969 25.1926 16.5703 25.0411 17.4256C24.8896 16.5703 24.7706 15.3969 24.7706 13.9509C24.7706 12.5048 24.8896 11.3314 25.0411 10.4761ZM25.0411 8.00006C24.294 8.00006 23.6886 10.6644 23.6886 13.9509C23.6886 17.2374 24.294 19.9017 25.0411 19.9017C25.7882 19.9017 26.3936 17.2374 26.3936 13.9509C26.3936 10.6644 25.7882 8.00006 25.0411 8.00006Z" fill="white"/>
</svg>
