<svg width="23" height="23" viewBox="0 0 23 23" fill="none" xmlns="http://www.w3.org/2000/svg">
<path d="M4.3125 20.125C3.92917 20.125 3.59375 19.9812 3.30625 19.6938C3.01875 19.4062 2.875 19.0708 2.875 18.6875V4.3125C2.875 3.92917 3.01875 3.59375 3.30625 3.30625C3.59375 3.01875 3.92917 2.875 4.3125 2.875H10.9969V4.3125H4.3125V18.6875H18.6875V12.0031H20.125V18.6875C20.125 19.0708 19.9812 19.4062 19.6938 19.6938C19.4062 19.9812 19.0708 20.125 18.6875 20.125H4.3125ZM9.15208 14.8781L8.14583 13.8479L17.6812 4.3125H12.4344V2.875H20.125V10.5656H18.6875V5.34271L9.15208 14.8781Z" fill="url(#paint0_linear_343_34426)"/>
<defs>
<linearGradient id="paint0_linear_343_34426" x1="3.21191" y1="18.2837" x2="22.2151" y2="10.4316" gradientUnits="userSpaceOnUse">
<stop stop-color="#3F4AB3"/>
<stop offset="1" stop-color="#7A64D0"/>
</linearGradient>
</defs>
</svg>
