<svg width="19" height="20" viewBox="0 0 19 20" fill="none" xmlns="http://www.w3.org/2000/svg">
<path d="M12.41 13.8198L13.3007 12.9291L10.1538 9.76248V5.78435H8.96628V10.2375L12.41 13.8198ZM9.50065 17.9166C8.41871 17.9166 7.39614 17.7088 6.43294 17.2932C5.46975 16.8776 4.6286 16.3102 3.90951 15.5911C3.19041 14.872 2.62305 14.0309 2.20742 13.0677C1.7918 12.1045 1.58398 11.0819 1.58398 9.99998C1.58398 8.91804 1.7918 7.89547 2.20742 6.93227C2.62305 5.96908 3.19041 5.12793 3.90951 4.40883C4.6286 3.68974 5.46975 3.12238 6.43294 2.70675C7.39614 2.29113 8.41871 2.08331 9.50065 2.08331C10.5826 2.08331 11.6052 2.29113 12.5684 2.70675C13.5316 3.12238 14.3727 3.68974 15.0918 4.40883C15.8109 5.12793 16.3783 5.96908 16.7939 6.93227C17.2095 7.89547 17.4173 8.91804 17.4173 9.99998C17.4173 11.0819 17.2095 12.1045 16.7939 13.0677C16.3783 14.0309 15.8109 14.872 15.0918 15.5911C14.3727 16.3102 13.5316 16.8776 12.5684 17.2932C11.6052 17.7088 10.5826 17.9166 9.50065 17.9166ZM9.50065 16.7291C11.3479 16.7291 12.9312 16.0694 14.2507 14.75C15.5701 13.4305 16.2298 11.8472 16.2298 9.99998C16.2298 8.15276 15.5701 6.56942 14.2507 5.24998C12.9312 3.93054 11.3479 3.27081 9.50065 3.27081C7.65343 3.27081 6.0701 3.93054 4.75065 5.24998C3.43121 6.56942 2.77148 8.15276 2.77148 9.99998C2.77148 11.8472 3.43121 13.4305 4.75065 14.75C6.0701 16.0694 7.65343 16.7291 9.50065 16.7291Z" fill="#6C74C3"/>
</svg>
