<svg width="20" height="21" viewBox="0 0 20 21" fill="none" xmlns="http://www.w3.org/2000/svg">
<path opacity="0.5" d="M18.543 20.5L13.6755 15.4591C13.0132 16.0264 12.2411 16.4683 11.359 16.7848C10.4769 17.1012 9.53823 17.2594 8.54305 17.2594C6.15536 17.2594 4.1346 16.4411 2.48076 14.8044C0.826921 13.1677 0 11.1928 0 8.87969C0 6.56655 0.827815 4.59165 2.48344 2.95499C4.13907 1.31833 6.14238 0.5 8.49338 0.5C10.8444 0.5 12.8422 1.31833 14.4868 2.95499C16.1313 4.59165 16.9536 6.56819 16.9536 8.8846C16.9536 9.81968 16.7991 10.7237 16.4901 11.5965C16.181 12.4694 15.7174 13.2878 15.0993 14.0515L20 19.0597L18.543 20.5ZM8.50993 15.2954C10.3035 15.2954 11.8281 14.668 13.0836 13.4132C14.3391 12.1585 14.9669 10.6473 14.9669 8.87969C14.9669 7.1121 14.3391 5.60092 13.0836 4.34615C11.8281 3.09138 10.3035 2.46399 8.50993 2.46399C6.69795 2.46399 5.15775 3.09138 3.88934 4.34615C2.62095 5.60092 1.98675 7.1121 1.98675 8.87969C1.98675 10.6473 2.62095 12.1585 3.88934 13.4132C5.15775 14.668 6.69795 15.2954 8.50993 15.2954Z" fill="white"/>
</svg>
