<svg width="28" height="28" viewBox="0 0 28 28" fill="none" xmlns="http://www.w3.org/2000/svg">
<path d="M24.4334 3.6648C24.1699 3.67636 23.9135 3.74969 23.6822 3.84231C23.4532 3.93431 22.1353 4.49684 20.189 5.32896C18.2427 6.16108 15.7128 7.24467 13.2048 8.31916C8.18896 10.4681 3.26001 12.5826 3.26001 12.5826L3.29594 12.5688C3.29594 12.5688 2.99845 12.6683 2.69684 12.8784C2.54603 12.9835 2.38379 13.1192 2.25095 13.3169C2.11811 13.5147 2.02099 13.795 2.05759 14.0914C2.18614 15.1327 3.26529 15.428 3.26529 15.428L3.26952 15.4301L8.08555 17.0785C8.20834 17.4881 9.54627 21.9536 9.84058 22.8993C10.0031 23.4222 10.1552 23.7238 10.3139 23.9295C10.3933 24.0325 10.4766 24.1121 10.5686 24.1704C10.6051 24.1936 10.6436 24.2109 10.6816 24.2264H10.6838C10.6884 24.2285 10.6928 24.2287 10.6975 24.2306L10.6848 24.2275C10.6936 24.231 10.7024 24.2371 10.7112 24.2402C10.7284 24.2462 10.7389 24.246 10.7609 24.2507C11.3124 24.4433 11.7689 24.0859 11.7689 24.0859L11.7879 24.0711L14.7464 21.3271L19.5476 25.0706L19.6079 25.0981C20.4483 25.4713 21.2083 25.2631 21.6292 24.9206C22.0501 24.5781 22.2156 24.1366 22.2156 24.1366L22.2335 24.0901L25.7616 5.70194C25.8518 5.29056 25.8647 4.93496 25.7795 4.61363C25.6944 4.29231 25.4875 4.01298 25.228 3.85816C24.9684 3.70334 24.6969 3.65324 24.4334 3.6648ZM24.4619 4.76473C24.5689 4.75977 24.6483 4.77201 24.6733 4.78692C24.6983 4.80183 24.7095 4.79987 24.7335 4.89047C24.7575 4.98106 24.7705 5.17189 24.705 5.47054L24.7028 5.47688L21.1949 23.7583C21.1866 23.7767 21.1135 23.9459 20.9466 24.0817C20.7763 24.2202 20.587 24.3283 20.0844 24.1176L14.8341 20.0232L14.6862 19.907L14.683 19.9102L13.1129 18.732L21.9366 8.35086C22.0044 8.2713 22.0477 8.1738 22.0613 8.07015C22.0749 7.9665 22.0581 7.86114 22.0131 7.76681C21.968 7.67248 21.8966 7.59322 21.8075 7.53861C21.7184 7.484 21.6153 7.45638 21.5108 7.45908C21.4087 7.46174 21.3094 7.49324 21.2245 7.54995L8.45642 16.062L3.63299 14.4105C3.63299 14.4105 3.15403 14.144 3.13111 13.9583C3.12983 13.948 3.12418 13.9573 3.14907 13.9202C3.17396 13.8832 3.23652 13.8206 3.31496 13.766C3.47183 13.6567 3.65096 13.5906 3.65096 13.5906L3.66892 13.5842L3.68688 13.5769C3.68688 13.5769 8.61609 11.4623 13.6317 9.31343C16.1395 8.239 18.669 7.1562 20.6148 6.32429C22.5601 5.49259 23.9657 4.89394 24.0847 4.84609C24.2202 4.79183 24.3549 4.76969 24.4619 4.76473ZM18.6104 10.593L11.9189 18.4658L11.9158 18.469C11.9053 18.4815 11.8954 18.4946 11.8862 18.508C11.8756 18.5227 11.8657 18.5379 11.8566 18.5535C11.819 18.6173 11.7949 18.6881 11.7858 18.7616C11.7858 18.763 11.7858 18.7645 11.7858 18.7659L10.9141 22.6859C10.8996 22.6435 10.8895 22.628 10.8739 22.5781V22.577C10.5971 21.6874 9.33477 17.476 9.16012 16.8935L18.6104 10.593ZM12.6744 19.7559L13.8768 20.6582L12.1102 22.296L12.6744 19.7559Z" fill="white"/>
</svg>
