<svg width="28" height="28" viewBox="0 0 28 28" fill="none" xmlns="http://www.w3.org/2000/svg">
<g clip-path="url(#clip0_687_11041)">
<path d="M18.9424 2.56177C15.7071 2.56177 13.0761 5.19272 13.0761 8.42806C13.0761 8.62248 13.1247 8.81267 13.1438 9.00286C9.14343 8.62037 5.6059 6.69311 3.20317 3.74517C3.09117 3.60358 2.91789 3.52751 2.73615 3.54019C2.55653 3.55287 2.39592 3.65642 2.30717 3.81279C1.80211 4.68133 1.5126 5.68088 1.5126 6.75439C1.5126 8.05402 1.97751 9.24377 2.696 10.2201C2.55653 10.1588 2.40438 10.125 2.27336 10.051C2.10641 9.96226 1.90566 9.96649 1.74294 10.0637C1.58022 10.1609 1.4809 10.3363 1.47879 10.5244V10.592C1.47879 12.5848 2.51004 14.3155 4.03155 15.3763C4.01465 15.3742 3.99774 15.3806 3.98084 15.3763C3.79487 15.3446 3.6068 15.4101 3.48212 15.5517C3.35744 15.6933 3.31729 15.8898 3.37223 16.0695C3.97661 17.9481 5.51926 19.383 7.42961 19.9071C5.90809 20.8115 4.14356 21.3441 2.23954 21.3441C1.82747 21.3441 1.4323 21.3229 1.03924 21.2764C0.78565 21.2426 0.54263 21.3905 0.458101 21.6315C0.371459 21.8724 0.466554 22.1407 0.684216 22.2739C3.12498 23.8398 6.02221 24.759 9.13709 24.759C14.1856 24.759 18.1457 22.65 20.8021 19.6366C23.4584 16.6231 24.8425 12.7094 24.8425 9.05358C24.8425 8.89931 24.8299 8.74927 24.8256 8.59712C25.8167 7.83848 26.7022 6.94881 27.3953 5.90911C27.5327 5.70835 27.5179 5.43997 27.3594 5.25401C27.203 5.06805 26.9389 5.01099 26.7191 5.11454C26.4401 5.23922 26.1147 5.2519 25.8231 5.35122C26.2077 4.8377 26.5373 4.28404 26.736 3.66064C26.8036 3.44721 26.7296 3.21264 26.5542 3.07317C26.3788 2.93581 26.1337 2.9189 25.9414 3.03513C25.0179 3.58245 23.9951 3.96706 22.9153 4.20163C21.8671 3.22109 20.4872 2.56177 18.9424 2.56177ZM18.9424 3.64374C20.3224 3.64374 21.5692 4.23332 22.4419 5.16525C22.5729 5.3005 22.7652 5.35756 22.9491 5.31741C23.6549 5.17793 24.3248 4.97295 24.9778 4.7088C24.6016 5.21597 24.1367 5.64918 23.5915 5.97673C23.3443 6.09718 23.228 6.38247 23.3189 6.64239C23.4077 6.90021 23.6782 7.05024 23.9465 6.99107C24.4875 6.92556 24.9693 6.70579 25.485 6.56843C25.0222 7.06926 24.515 7.52149 23.9634 7.92089C23.8134 8.03078 23.731 8.20829 23.7437 8.39425C23.7521 8.61403 23.7606 8.83169 23.7606 9.05358C23.7606 12.4347 22.4631 16.1054 19.9906 18.9096C17.5181 21.7139 13.8876 23.6771 9.13709 23.6771C6.9795 23.6771 4.94235 23.1995 3.10174 22.3584C5.38401 22.183 7.48878 21.3758 9.18781 20.0423C9.36532 19.9007 9.43506 19.664 9.36321 19.4485C9.29136 19.233 9.09271 19.085 8.8666 19.0787C7.08304 19.047 5.589 18.0094 4.79231 16.5428C4.8219 16.5428 4.84726 16.5428 4.87684 16.5428C5.41149 16.5428 5.93979 16.4752 6.43217 16.34C6.66885 16.2702 6.83157 16.0504 6.82312 15.8032C6.81466 15.556 6.63927 15.3446 6.39836 15.2918C4.47322 14.903 3.02989 13.335 2.696 11.3866C3.24121 11.5746 3.7991 11.7226 4.40348 11.7416C4.65073 11.7564 4.87473 11.6021 4.9508 11.3676C5.02688 11.133 4.9339 10.8752 4.72469 10.7442C3.43985 9.88407 2.59457 8.41961 2.59457 6.75439C2.59457 6.13733 2.75517 5.57099 2.96649 5.03001C5.67141 7.99908 9.4583 9.97071 13.7355 10.1863C13.9045 10.1947 14.0693 10.125 14.1792 9.99607C14.2891 9.86505 14.3314 9.69177 14.2933 9.52694C14.2109 9.17614 14.1581 8.80422 14.1581 8.42806C14.1581 5.77809 16.2925 3.64374 18.9424 3.64374Z" fill="white"/>
</g>
<defs>
<clipPath id="clip0_687_11041">
<rect width="27.0492" height="27.0492" fill="white" transform="translate(0.42627 0.42627)"/>
</clipPath>
</defs>
</svg>
