<svg width="19" height="18" viewBox="0 0 19 18" fill="none" xmlns="http://www.w3.org/2000/svg">
<g clip-path="url(#clip0_375_8479)">
<path d="M9.07643 11.8125C9.96246 11.8125 10.7148 11.5024 11.3336 10.8822C11.9523 10.262 12.2617 9.50882 12.2617 8.62279C12.2617 7.73676 11.9516 6.98438 11.3314 6.36563C10.7112 5.74688 9.95804 5.4375 9.07201 5.4375C8.18598 5.4375 7.43359 5.74761 6.81484 6.36784C6.19609 6.98805 5.88672 7.74118 5.88672 8.62721C5.88672 9.51324 6.19683 10.2656 6.81706 10.8844C7.43727 11.5031 8.19039 11.8125 9.07643 11.8125ZM9.06981 10.725C8.48525 10.725 7.98984 10.5204 7.58359 10.1112C7.17734 9.70202 6.97422 9.20514 6.97422 8.62059C6.97422 8.03603 7.17881 7.54063 7.588 7.13438C7.9972 6.72813 8.49407 6.525 9.07862 6.525C9.66319 6.525 10.1586 6.72959 10.5648 7.13878C10.9711 7.54798 11.1742 8.04486 11.1742 8.62941C11.1742 9.21397 10.9696 9.70938 10.5604 10.1156C10.1512 10.5219 9.65436 10.725 9.06981 10.725ZM9.07422 14.25C7.24922 14.25 5.59922 13.7313 4.12422 12.6938C2.64922 11.6562 1.54922 10.3 0.824219 8.625C1.54922 6.95 2.64922 5.59375 4.12422 4.55625C5.59922 3.51875 7.24922 3 9.07422 3C10.8992 3 12.5492 3.51875 14.0242 4.55625C15.4992 5.59375 16.5992 6.95 17.3242 8.625C16.5992 10.3 15.4992 11.6562 14.0242 12.6938C12.5492 13.7313 10.8992 14.25 9.07422 14.25ZM9.07105 13.125C10.5857 13.125 11.9773 12.7156 13.2461 11.8969C14.5148 11.0781 15.4805 9.9875 16.143 8.625C15.4805 7.2625 14.5159 6.17188 13.2493 5.35313C11.9826 4.53438 10.592 4.125 9.07739 4.125C7.56278 4.125 6.17109 4.53438 4.90234 5.35313C3.63359 6.17188 2.66172 7.2625 1.98672 8.625C2.66172 9.9875 3.63254 11.0781 4.89918 11.8969C6.16582 12.7156 7.55645 13.125 9.07105 13.125Z" fill="white"/>
</g>
<defs>
<clipPath id="clip0_375_8479">
<rect width="18" height="18" fill="white" transform="translate(0.0742188)"/>
</clipPath>
</defs>
</svg>
